<svg width="597" height="704" viewBox="0 0 597 704" fill="none" xmlns="http://www.w3.org/2000/svg">
<path fill-rule="evenodd" clip-rule="evenodd" d="M298 0.878788L249 87V166.5L160 318.5C146 343.3 116.167 357.5 103 361.5C111 392.3 99.6667 423 93 434.5L0 598.5L14 623H120L133 603.5V594C104.2 548.4 116.667 504 126.5 487.5L249 280V451H205.5C175.1 451 161.167 481 158 496H298H298.5H438.5C435.333 481 421.4 451 391 451H347.5V280L470 487.5C479.833 504 492.3 548.4 463.5 594V603.5L476.5 623H582.5L596.5 598.5L503.5 434.5C496.833 423 485.5 392.3 493.5 361.5C480.333 357.5 450.5 343.3 436.5 318.5L347.5 166.5V87L298.5 0.878788V0L298.25 0.439394L298 0V0.878788ZM298.25 453.953L314 451V87L298.25 58.9453L282.5 87V451L298.25 453.953ZM298 517H282.5V567.5C281.833 575.667 277.9 595 267.5 607C257.1 619 252.833 622.667 252 623L298 703.129V704L298.25 703.565L298.5 704V703.129L344.5 623C343.667 622.667 339.4 619 329 607C318.6 595 314.667 575.667 314 567.5V517H298.5H298Z" fill="url(#paint0_linear_1_6)"/>
<defs>
<linearGradient id="paint0_linear_1_6" x1="298.25" y1="0" x2="298.25" y2="704" gradientUnits="userSpaceOnUse">
<stop stop-color="#E8D7B5"/>
<stop offset="1" stop-color="#D3AA5F"/>
</linearGradient>
</defs>
</svg>
